<svg width="1024" height="753" viewBox="0 0 1024 753" fill="none" xmlns="http://www.w3.org/2000/svg">
<g opacity="0.2" filter="url(#filter0_f_175_1868)">
<ellipse cx="521.5" cy="29" rx="670.5" ry="350" fill="#35875D"/>
</g>
<path d="M42.0349 265C43.5302 265 44.6622 265.63 45.4308 266.891C46.2134 268.138 46.6047 269.953 46.6047 272.336C46.6047 274.719 46.2134 276.541 45.4308 277.802C44.6622 279.063 43.5302 279.693 42.0349 279.693C40.5536 279.693 39.4216 279.063 38.639 277.802C37.8564 276.541 37.4651 274.719 37.4651 272.336C37.4651 269.967 37.8564 268.152 38.639 266.891C39.4216 265.63 40.5536 265 42.0349 265ZM38.9534 272.336C38.9534 274.026 39.1072 275.35 39.4146 276.306L44.0683 267.099C43.5791 266.448 42.9013 266.122 42.0349 266.122C41.0706 266.122 40.316 266.635 39.771 267.66C39.2259 268.672 38.9534 270.23 38.9534 272.336ZM42.0349 278.55C43.0131 278.55 43.7748 278.044 44.3198 277.033C44.8648 276.008 45.1373 274.442 45.1373 272.336C45.1373 270.549 44.9627 269.163 44.6133 268.18L39.9596 277.469C40.4627 278.19 41.1545 278.55 42.0349 278.55Z" fill="url(#paint0_linear_175_1868)" fill-opacity="0.6"/>
<path d="M43.2926 302.135H46.3741V303.236H38.3874V302.135H41.9511V290.455L38.5551 292.471L37.9682 291.536L42.1607 288.959H43.2926V302.135Z" fill="url(#paint1_linear_175_1868)" fill-opacity="0.6"/>
<path d="M42.0349 312.502C43.5302 312.502 44.6622 313.133 45.4308 314.393C46.2134 315.64 46.6047 317.455 46.6047 319.838C46.6047 322.221 46.2134 324.043 45.4308 325.304C44.6622 326.565 43.5302 327.195 42.0349 327.195C40.5536 327.195 39.4216 326.565 38.639 325.304C37.8564 324.043 37.4651 322.221 37.4651 319.838C37.4651 317.469 37.8564 315.654 38.639 314.393C39.4216 313.133 40.5536 312.502 42.0349 312.502ZM38.9534 319.838C38.9534 321.529 39.1072 322.852 39.4146 323.808L44.0683 314.601C43.5791 313.95 42.9013 313.624 42.0349 313.624C41.0706 313.624 40.316 314.137 39.771 315.162C39.2259 316.174 38.9534 317.732 38.9534 319.838ZM42.0349 326.052C43.0131 326.052 43.7748 325.546 44.3198 324.535C44.8648 323.51 45.1373 321.944 45.1373 319.838C45.1373 318.051 44.9627 316.665 44.6133 315.682L39.9596 324.971C40.4627 325.692 41.1545 326.052 42.0349 326.052Z" fill="url(#paint2_linear_175_1868)" fill-opacity="0.6"/>
<path d="M43.2926 349.637H46.3741V350.738H38.3874V349.637H41.9511V337.957L38.5551 339.973L37.9682 339.038L42.1607 336.461H43.2926V349.637Z" fill="url(#paint3_linear_175_1868)" fill-opacity="0.6"/>
<path d="M43.2926 373.388H46.3741V374.489H38.3874V373.388H41.9511V361.708L38.5551 363.724L37.9682 362.789L42.1607 360.212H43.2926V373.388Z" fill="url(#paint4_linear_175_1868)" fill-opacity="0.6"/>
<path d="M42.0349 383.755C43.5302 383.755 44.6622 384.386 45.4308 385.646C46.2134 386.893 46.6047 388.708 46.6047 391.091C46.6047 393.474 46.2134 395.296 45.4308 396.557C44.6622 397.818 43.5302 398.448 42.0349 398.448C40.5536 398.448 39.4216 397.818 38.639 396.557C37.8564 395.296 37.4651 393.474 37.4651 391.091C37.4651 388.722 37.8564 386.907 38.639 385.646C39.4216 384.386 40.5536 383.755 42.0349 383.755ZM38.9534 391.091C38.9534 392.782 39.1072 394.105 39.4146 395.061L44.0683 385.854C43.5791 385.203 42.9013 384.878 42.0349 384.878C41.0706 384.878 40.316 385.39 39.771 386.415C39.2259 387.427 38.9534 388.985 38.9534 391.091ZM42.0349 397.305C43.0131 397.305 43.7748 396.8 44.3198 395.788C44.8648 394.763 45.1373 393.197 45.1373 391.091C45.1373 389.304 44.9627 387.919 44.6133 386.935L39.9596 396.225C40.4627 396.945 41.1545 397.305 42.0349 397.305Z" fill="url(#paint5_linear_175_1868)" fill-opacity="0.6"/>
<path d="M43.2926 420.89H46.3741V421.992H38.3874V420.89H41.9511V409.21L38.5551 411.226L37.9682 410.291L42.1607 407.714H43.2926V420.89Z" fill="url(#paint6_linear_175_1868)" fill-opacity="0.6"/>
<path d="M42.0349 431.257C43.5302 431.257 44.6622 431.888 45.4308 433.149C46.2134 434.396 46.6047 436.211 46.6047 438.594C46.6047 440.977 46.2134 442.798 45.4308 444.059C44.6622 445.32 43.5302 445.95 42.0349 445.95C40.5536 445.95 39.4216 445.32 38.639 444.059C37.8564 442.798 37.4651 440.977 37.4651 438.594C37.4651 436.224 37.8564 434.409 38.639 433.149C39.4216 431.888 40.5536 431.257 42.0349 431.257ZM38.9534 438.594C38.9534 440.284 39.1072 441.607 39.4146 442.563L44.0683 433.356C43.5791 432.705 42.9013 432.38 42.0349 432.38C41.0706 432.38 40.316 432.892 39.771 433.918C39.2259 434.929 38.9534 436.488 38.9534 438.594ZM42.0349 444.807C43.0131 444.807 43.7748 444.302 44.3198 443.29C44.8648 442.265 45.1373 440.699 45.1373 438.594C45.1373 436.806 44.9627 435.421 44.6133 434.437L39.9596 443.727C40.4627 444.447 41.1545 444.807 42.0349 444.807Z" fill="url(#paint7_linear_175_1868)" fill-opacity="0.6"/>
<path d="M42.0349 455.008C43.5302 455.008 44.6622 455.639 45.4308 456.9C46.2134 458.147 46.6047 459.962 46.6047 462.345C46.6047 464.728 46.2134 466.549 45.4308 467.81C44.6622 469.071 43.5302 469.701 42.0349 469.701C40.5536 469.701 39.4216 469.071 38.639 467.81C37.8564 466.549 37.4651 464.728 37.4651 462.345C37.4651 459.975 37.8564 458.16 38.639 456.9C39.4216 455.639 40.5536 455.008 42.0349 455.008ZM38.9534 462.345C38.9534 464.035 39.1072 465.358 39.4146 466.314L44.0683 457.107C43.5791 456.456 42.9013 456.131 42.0349 456.131C41.0706 456.131 40.316 456.643 39.771 457.669C39.2259 458.68 38.9534 460.239 38.9534 462.345ZM42.0349 468.558C43.0131 468.558 43.7748 468.053 44.3198 467.041C44.8648 466.016 45.1373 464.451 45.1373 462.345C45.1373 460.557 44.9627 459.172 44.6133 458.188L39.9596 467.478C40.4627 468.198 41.1545 468.558 42.0349 468.558Z" fill="url(#paint8_linear_175_1868)" fill-opacity="0.6"/>
<path d="M43.2926 492.143H46.3741V493.245H38.3874V492.143H41.9511V480.464L38.5551 482.48L37.9682 481.544L42.1607 478.967H43.2926V492.143Z" fill="url(#paint9_linear_175_1868)" fill-opacity="0.6"/>
<path d="M42.0349 502.511C43.5302 502.511 44.6622 503.141 45.4308 504.402C46.2134 505.649 46.6047 507.464 46.6047 509.847C46.6047 512.23 46.2134 514.052 45.4308 515.312C44.6622 516.573 43.5302 517.204 42.0349 517.204C40.5536 517.204 39.4216 516.573 38.639 515.312C37.8564 514.052 37.4651 512.23 37.4651 509.847C37.4651 507.478 37.8564 505.663 38.639 504.402C39.4216 503.141 40.5536 502.511 42.0349 502.511ZM38.9534 509.847C38.9534 511.537 39.1072 512.86 39.4146 513.816L44.0683 504.61C43.5791 503.958 42.9013 503.633 42.0349 503.633C41.0706 503.633 40.316 504.145 39.771 505.171C39.2259 506.182 38.9534 507.741 38.9534 509.847ZM42.0349 516.061C43.0131 516.061 43.7748 515.555 44.3198 514.543C44.8648 513.518 45.1373 511.953 45.1373 509.847C45.1373 508.059 44.9627 506.674 44.6133 505.69L39.9596 514.98C40.4627 515.7 41.1545 516.061 42.0349 516.061Z" fill="url(#paint10_linear_175_1868)" fill-opacity="0.6"/>
<path d="M43.2926 539.645H46.3741V540.747H38.3874V539.645H41.9511V527.966L38.5551 529.982L37.9682 529.046L42.1607 526.469H43.2926V539.645Z" fill="url(#paint11_linear_175_1868)" fill-opacity="0.6"/>
<path d="M43.2926 563.396H46.3741V564.498H38.3874V563.396H41.9511V551.717L38.5551 553.733L37.9682 552.798L42.1607 550.221H43.2926V563.396Z" fill="url(#paint12_linear_175_1868)" fill-opacity="0.6"/>
<path d="M80.9651 312.502C82.4604 312.502 83.5924 313.133 84.361 314.393C85.1436 315.64 85.5349 317.455 85.5349 319.838C85.5349 322.221 85.1436 324.043 84.361 325.304C83.5924 326.565 82.4604 327.195 80.9651 327.195C79.4838 327.195 78.3518 326.565 77.5692 325.304C76.7866 324.043 76.3953 322.221 76.3953 319.838C76.3953 317.469 76.7866 315.654 77.5692 314.393C78.3518 313.133 79.4838 312.502 80.9651 312.502ZM77.8836 319.838C77.8836 321.529 78.0374 322.852 78.3448 323.808L82.9985 314.601C82.5093 313.95 81.8315 313.624 80.9651 313.624C80.0008 313.624 79.2462 314.137 78.7012 315.162C78.1561 316.174 77.8836 317.732 77.8836 319.838ZM80.9651 326.052C81.9433 326.052 82.705 325.546 83.25 324.535C83.795 323.51 84.0675 321.944 84.0675 319.838C84.0675 318.051 83.8928 316.665 83.5435 315.682L78.8898 324.971C79.3929 325.692 80.0847 326.052 80.9651 326.052Z" fill="url(#paint13_linear_175_1868)" fill-opacity="0.6"/>
<path d="M82.2228 349.637H85.3043V350.738H77.3176V349.637H80.8812V337.957L77.4853 339.973L76.8984 339.038L81.0909 336.461H82.2228V349.637Z" fill="url(#paint14_linear_175_1868)" fill-opacity="0.6"/>
<path d="M80.9651 360.004C82.4604 360.004 83.5924 360.635 84.361 361.895C85.1436 363.142 85.5349 364.957 85.5349 367.34C85.5349 369.723 85.1436 371.545 84.361 372.806C83.5924 374.067 82.4604 374.697 80.9651 374.697C79.4838 374.697 78.3518 374.067 77.5692 372.806C76.7866 371.545 76.3953 369.723 76.3953 367.34C76.3953 364.971 76.7866 363.156 77.5692 361.895C78.3518 360.635 79.4838 360.004 80.9651 360.004ZM77.8836 367.34C77.8836 369.031 78.0374 370.354 78.3448 371.31L82.9985 362.103C82.5093 361.452 81.8315 361.126 80.9651 361.126C80.0008 361.126 79.2462 361.639 78.7012 362.664C78.1561 363.676 77.8836 365.234 77.8836 367.34ZM80.9651 373.554C81.9433 373.554 82.705 373.049 83.25 372.037C83.795 371.012 84.0675 369.446 84.0675 367.34C84.0675 365.553 83.8928 364.168 83.5435 363.184L78.8898 372.474C79.3929 373.194 80.0847 373.554 80.9651 373.554Z" fill="url(#paint15_linear_175_1868)" fill-opacity="0.6"/>
<path d="M80.9651 383.755C82.4604 383.755 83.5924 384.386 84.361 385.646C85.1436 386.893 85.5349 388.708 85.5349 391.091C85.5349 393.474 85.1436 395.296 84.361 396.557C83.5924 397.818 82.4604 398.448 80.9651 398.448C79.4838 398.448 78.3518 397.818 77.5692 396.557C76.7866 395.296 76.3953 393.474 76.3953 391.091C76.3953 388.722 76.7866 386.907 77.5692 385.646C78.3518 384.386 79.4838 383.755 80.9651 383.755ZM77.8836 391.091C77.8836 392.782 78.0374 394.105 78.3448 395.061L82.9985 385.854C82.5093 385.203 81.8315 384.878 80.9651 384.878C80.0008 384.878 79.2462 385.39 78.7012 386.415C78.1561 387.427 77.8836 388.985 77.8836 391.091ZM80.9651 397.305C81.9433 397.305 82.705 396.8 83.25 395.788C83.795 394.763 84.0675 393.197 84.0675 391.091C84.0675 389.304 83.8928 387.919 83.5435 386.935L78.8898 396.225C79.3929 396.945 80.0847 397.305 80.9651 397.305Z" fill="url(#paint16_linear_175_1868)" fill-opacity="0.6"/>
<path d="M82.2228 420.89H85.3043V421.992H77.3176V420.89H80.8812V409.21L77.4853 411.226L76.8984 410.291L81.0909 407.714H82.2228V420.89Z" fill="url(#paint17_linear_175_1868)" fill-opacity="0.6"/>
<path d="M80.9651 431.257C82.4604 431.257 83.5924 431.888 84.361 433.149C85.1436 434.396 85.5349 436.211 85.5349 438.594C85.5349 440.977 85.1436 442.798 84.361 444.059C83.5924 445.32 82.4604 445.95 80.9651 445.95C79.4838 445.95 78.3518 445.32 77.5692 444.059C76.7866 442.798 76.3953 440.977 76.3953 438.594C76.3953 436.224 76.7866 434.409 77.5692 433.149C78.3518 431.888 79.4838 431.257 80.9651 431.257ZM77.8836 438.594C77.8836 440.284 78.0374 441.607 78.3448 442.563L82.9985 433.356C82.5093 432.705 81.8315 432.38 80.9651 432.38C80.0008 432.38 79.2462 432.892 78.7012 433.918C78.1561 434.929 77.8836 436.488 77.8836 438.594ZM80.9651 444.807C81.9433 444.807 82.705 444.302 83.25 443.29C83.795 442.265 84.0675 440.699 84.0675 438.594C84.0675 436.806 83.8928 435.421 83.5435 434.437L78.8898 443.727C79.3929 444.447 80.0847 444.807 80.9651 444.807Z" fill="url(#paint18_linear_175_1868)" fill-opacity="0.6"/>
<path d="M82.2228 468.392H85.3043V469.494H77.3176V468.392H80.8812V456.713L77.4853 458.728L76.8984 457.793L81.0909 455.216H82.2228V468.392Z" fill="url(#paint19_linear_175_1868)" fill-opacity="0.6"/>
<path d="M80.9651 478.76C82.4604 478.76 83.5924 479.39 84.361 480.651C85.1436 481.898 85.5349 483.713 85.5349 486.096C85.5349 488.479 85.1436 490.301 84.361 491.561C83.5924 492.822 82.4604 493.453 80.9651 493.453C79.4838 493.453 78.3518 492.822 77.5692 491.561C76.7866 490.301 76.3953 488.479 76.3953 486.096C76.3953 483.726 76.7866 481.911 77.5692 480.651C78.3518 479.39 79.4838 478.76 80.9651 478.76ZM77.8836 486.096C77.8836 487.786 78.0374 489.109 78.3448 490.065L82.9985 480.859C82.5093 480.207 81.8315 479.882 80.9651 479.882C80.0008 479.882 79.2462 480.394 78.7012 481.42C78.1561 482.431 77.8836 483.99 77.8836 486.096ZM80.9651 492.31C81.9433 492.31 82.705 491.804 83.25 490.792C83.795 489.767 84.0675 488.202 84.0675 486.096C84.0675 484.308 83.8928 482.923 83.5435 481.939L78.8898 491.229C79.3929 491.949 80.0847 492.31 80.9651 492.31Z" fill="url(#paint20_linear_175_1868)" fill-opacity="0.6"/>
<path d="M80.9651 502.511C82.4604 502.511 83.5924 503.141 84.361 504.402C85.1436 505.649 85.5349 507.464 85.5349 509.847C85.5349 512.23 85.1436 514.052 84.361 515.312C83.5924 516.573 82.4604 517.204 80.9651 517.204C79.4838 517.204 78.3518 516.573 77.5692 515.312C76.7866 514.052 76.3953 512.23 76.3953 509.847C76.3953 507.478 76.7866 505.663 77.5692 504.402C78.3518 503.141 79.4838 502.511 80.9651 502.511ZM77.8836 509.847C77.8836 511.537 78.0374 512.86 78.3448 513.816L82.9985 504.61C82.5093 503.958 81.8315 503.633 80.9651 503.633C80.0008 503.633 79.2462 504.145 78.7012 505.171C78.1561 506.182 77.8836 507.741 77.8836 509.847ZM80.9651 516.061C81.9433 516.061 82.705 515.555 83.25 514.543C83.795 513.518 84.0675 511.953 84.0675 509.847C84.0675 508.059 83.8928 506.674 83.5435 505.69L78.8898 514.98C79.3929 515.7 80.0847 516.061 80.9651 516.061Z" fill="url(#paint21_linear_175_1868)" fill-opacity="0.6"/>
<path d="M82.2228 539.645H85.3043V540.747H77.3176V539.645H80.8812V527.966L77.4853 529.982L76.8984 529.046L81.0909 526.469H82.2228V539.645Z" fill="url(#paint22_linear_175_1868)" fill-opacity="0.6"/>
<path d="M80.9651 550.013C82.4604 550.013 83.5924 550.643 84.361 551.904C85.1436 553.151 85.5349 554.966 85.5349 557.349C85.5349 559.732 85.1436 561.554 84.361 562.815C83.5924 564.075 82.4604 564.706 80.9651 564.706C79.4838 564.706 78.3518 564.075 77.5692 562.815C76.7866 561.554 76.3953 559.732 76.3953 557.349C76.3953 554.98 76.7866 553.165 77.5692 551.904C78.3518 550.643 79.4838 550.013 80.9651 550.013ZM77.8836 557.349C77.8836 559.039 78.0374 560.362 78.3448 561.318L82.9985 552.112C82.5093 551.461 81.8315 551.135 80.9651 551.135C80.0008 551.135 79.2462 551.648 78.7012 552.673C78.1561 553.684 77.8836 555.243 77.8836 557.349ZM80.9651 563.563C81.9433 563.563 82.705 563.057 83.25 562.046C83.795 561.02 84.0675 559.455 84.0675 557.349C84.0675 555.562 83.8928 554.176 83.5435 553.192L78.8898 562.482C79.3929 563.202 80.0847 563.563 80.9651 563.563Z" fill="url(#paint23_linear_175_1868)" fill-opacity="0.6"/>
<path d="M82.2228 587.147H85.3043V588.249H77.3176V587.147H80.8812V575.468L77.4853 577.484L76.8984 576.549L81.0909 573.972H82.2228V587.147Z" fill="url(#paint24_linear_175_1868)" fill-opacity="0.6"/>
<path d="M82.2228 610.899H85.3043V612H77.3176V610.899H80.8812V599.219L77.4853 601.235L76.8984 600.3L81.0909 597.723H82.2228V610.899Z" fill="url(#paint25_linear_175_1868)" fill-opacity="0.6"/>
<path d="M22.5698 336.253C24.0651 336.253 25.1971 336.884 25.9657 338.144C26.7483 339.391 27.1396 341.206 27.1396 343.589C27.1396 345.972 26.7483 347.794 25.9657 349.055C25.1971 350.316 24.0651 350.946 22.5698 350.946C21.0885 350.946 19.9565 350.316 19.1739 349.055C18.3913 347.794 18 345.972 18 343.589C18 341.22 18.3913 339.405 19.1739 338.144C19.9565 336.884 21.0885 336.253 22.5698 336.253ZM19.4883 343.589C19.4883 345.28 19.6421 346.603 19.9495 347.559L24.6032 338.352C24.114 337.701 23.4363 337.375 22.5698 337.375C21.6055 337.375 20.8509 337.888 20.3059 338.913C19.7608 339.925 19.4883 341.483 19.4883 343.589ZM22.5698 349.803C23.5481 349.803 24.3097 349.297 24.8547 348.286C25.3997 347.261 25.6722 345.695 25.6722 343.589C25.6722 341.802 25.4976 340.417 25.1482 339.433L20.4945 348.722C20.9976 349.443 21.6894 349.803 22.5698 349.803Z" fill="url(#paint26_linear_175_1868)" fill-opacity="0.6"/>
<path d="M22.5698 360.004C24.0651 360.004 25.1971 360.635 25.9657 361.895C26.7483 363.142 27.1396 364.957 27.1396 367.34C27.1396 369.723 26.7483 371.545 25.9657 372.806C25.1971 374.067 24.0651 374.697 22.5698 374.697C21.0885 374.697 19.9565 374.067 19.1739 372.806C18.3913 371.545 18 369.723 18 367.34C18 364.971 18.3913 363.156 19.1739 361.895C19.9565 360.635 21.0885 360.004 22.5698 360.004ZM19.4883 367.34C19.4883 369.031 19.6421 370.354 19.9495 371.31L24.6032 362.103C24.114 361.452 23.4363 361.126 22.5698 361.126C21.6055 361.126 20.8509 361.639 20.3059 362.664C19.7608 363.676 19.4883 365.234 19.4883 367.34ZM22.5698 373.554C23.5481 373.554 24.3097 373.049 24.8547 372.037C25.3997 371.012 25.6722 369.446 25.6722 367.34C25.6722 365.553 25.4976 364.168 25.1482 363.184L20.4945 372.474C20.9976 373.194 21.6894 373.554 22.5698 373.554Z" fill="url(#paint27_linear_175_1868)" fill-opacity="0.6"/>
<path d="M23.8276 397.139H26.909V398.24H18.9223V397.139H22.486V385.459L19.09 387.475L18.5031 386.54L22.6956 383.963H23.8276V397.139Z" fill="url(#paint28_linear_175_1868)" fill-opacity="0.6"/>
<path d="M22.5698 407.506C24.0651 407.506 25.1971 408.137 25.9657 409.398C26.7483 410.644 27.1396 412.459 27.1396 414.842C27.1396 417.225 26.7483 419.047 25.9657 420.308C25.1971 421.569 24.0651 422.199 22.5698 422.199C21.0885 422.199 19.9565 421.569 19.1739 420.308C18.3913 419.047 18 417.225 18 414.842C18 412.473 18.3913 410.658 19.1739 409.398C19.9565 408.137 21.0885 407.506 22.5698 407.506ZM19.4883 414.842C19.4883 416.533 19.6421 417.856 19.9495 418.812L24.6032 409.605C24.114 408.954 23.4363 408.629 22.5698 408.629C21.6055 408.629 20.8509 409.141 20.3059 410.166C19.7608 411.178 19.4883 412.737 19.4883 414.842ZM22.5698 421.056C23.5481 421.056 24.3097 420.551 24.8547 419.539C25.3997 418.514 25.6722 416.948 25.6722 414.842C25.6722 413.055 25.4976 411.67 25.1482 410.686L20.4945 419.976C20.9976 420.696 21.6894 421.056 22.5698 421.056Z" fill="url(#paint29_linear_175_1868)" fill-opacity="0.6"/>
<path d="M23.8276 444.641H26.909V445.743H18.9223V444.641H22.486V432.962L19.09 434.977L18.5031 434.042L22.6956 431.465H23.8276V444.641Z" fill="url(#paint30_linear_175_1868)" fill-opacity="0.6"/>
<path d="M23.8276 468.392H26.909V469.494H18.9223V468.392H22.486V456.713L19.09 458.728L18.5031 457.793L22.6956 455.216H23.8276V468.392Z" fill="url(#paint31_linear_175_1868)" fill-opacity="0.6"/>
<path d="M62.7577 302.135H65.8392V303.236H57.8525V302.135H61.4162V290.455L58.0202 292.471L57.4333 291.536L61.6258 288.959H62.7577V302.135Z" fill="url(#paint32_linear_175_1868)" fill-opacity="0.6"/>
<path d="M61.5 312.502C62.9953 312.502 64.1273 313.133 64.8959 314.393C65.6785 315.64 66.0698 317.455 66.0698 319.838C66.0698 322.221 65.6785 324.043 64.8959 325.304C64.1273 326.565 62.9953 327.195 61.5 327.195C60.0187 327.195 58.8867 326.565 58.1041 325.304C57.3215 324.043 56.9302 322.221 56.9302 319.838C56.9302 317.469 57.3215 315.654 58.1041 314.393C58.8867 313.133 60.0187 312.502 61.5 312.502ZM58.4185 319.838C58.4185 321.529 58.5723 322.852 58.8797 323.808L63.5334 314.601C63.0442 313.95 62.3664 313.624 61.5 313.624C60.5357 313.624 59.7811 314.137 59.2361 315.162C58.691 316.174 58.4185 317.732 58.4185 319.838ZM61.5 326.052C62.4782 326.052 63.2399 325.546 63.7849 324.535C64.3299 323.51 64.6024 321.944 64.6024 319.838C64.6024 318.051 64.4277 316.665 64.0784 315.682L59.4247 324.971C59.9278 325.692 60.6196 326.052 61.5 326.052Z" fill="url(#paint33_linear_175_1868)" fill-opacity="0.6"/>
<path d="M62.7577 349.637H65.8392V350.738H57.8525V349.637H61.4162V337.957L58.0202 339.973L57.4333 339.038L61.6258 336.461H62.7577V349.637Z" fill="url(#paint34_linear_175_1868)" fill-opacity="0.6"/>
<path d="M62.7577 373.388H65.8392V374.489H57.8525V373.388H61.4162V361.708L58.0202 363.724L57.4333 362.789L61.6258 360.212H62.7577V373.388Z" fill="url(#paint35_linear_175_1868)" fill-opacity="0.6"/>
<path d="M61.5 383.755C62.9953 383.755 64.1273 384.386 64.8959 385.646C65.6785 386.893 66.0698 388.708 66.0698 391.091C66.0698 393.474 65.6785 395.296 64.8959 396.557C64.1273 397.818 62.9953 398.448 61.5 398.448C60.0187 398.448 58.8867 397.818 58.1041 396.557C57.3215 395.296 56.9302 393.474 56.9302 391.091C56.9302 388.722 57.3215 386.907 58.1041 385.646C58.8867 384.386 60.0187 383.755 61.5 383.755ZM58.4185 391.091C58.4185 392.782 58.5723 394.105 58.8797 395.061L63.5334 385.854C63.0442 385.203 62.3664 384.878 61.5 384.878C60.5357 384.878 59.7811 385.39 59.2361 386.415C58.691 387.427 58.4185 388.985 58.4185 391.091ZM61.5 397.305C62.4782 397.305 63.2399 396.8 63.7849 395.788C64.3299 394.763 64.6024 393.197 64.6024 391.091C64.6024 389.304 64.4277 387.919 64.0784 386.935L59.4247 396.225C59.9278 396.945 60.6196 397.305 61.5 397.305Z" fill="url(#paint36_linear_175_1868)" fill-opacity="0.6"/>
<path d="M62.7577 420.89H65.8392V421.992H57.8525V420.89H61.4162V409.21L58.0202 411.226L57.4333 410.291L61.6258 407.714H62.7577V420.89Z" fill="url(#paint37_linear_175_1868)" fill-opacity="0.6"/>
<path d="M62.7577 444.641H65.8392V445.743H57.8525V444.641H61.4162V432.962L58.0202 434.977L57.4333 434.042L61.6258 431.465H62.7577V444.641Z" fill="url(#paint38_linear_175_1868)" fill-opacity="0.6"/>
<path d="M61.5 455.008C62.9953 455.008 64.1273 455.639 64.8959 456.9C65.6785 458.147 66.0698 459.962 66.0698 462.345C66.0698 464.728 65.6785 466.549 64.8959 467.81C64.1273 469.071 62.9953 469.701 61.5 469.701C60.0187 469.701 58.8867 469.071 58.1041 467.81C57.3215 466.549 56.9302 464.728 56.9302 462.345C56.9302 459.975 57.3215 458.16 58.1041 456.9C58.8867 455.639 60.0187 455.008 61.5 455.008ZM58.4185 462.345C58.4185 464.035 58.5723 465.358 58.8797 466.314L63.5334 457.107C63.0442 456.456 62.3664 456.131 61.5 456.131C60.5357 456.131 59.7811 456.643 59.2361 457.669C58.691 458.68 58.4185 460.239 58.4185 462.345ZM61.5 468.558C62.4782 468.558 63.2399 468.053 63.7849 467.041C64.3299 466.016 64.6024 464.451 64.6024 462.345C64.6024 460.557 64.4277 459.172 64.0784 458.188L59.4247 467.478C59.9278 468.198 60.6196 468.558 61.5 468.558Z" fill="url(#paint39_linear_175_1868)" fill-opacity="0.6"/>
<path d="M62.7577 492.143H65.8392V493.245H57.8525V492.143H61.4162V480.464L58.0202 482.48L57.4333 481.544L61.6258 478.967H62.7577V492.143Z" fill="url(#paint40_linear_175_1868)" fill-opacity="0.6"/>
<path d="M61.5 502.511C62.9953 502.511 64.1273 503.141 64.8959 504.402C65.6785 505.649 66.0698 507.464 66.0698 509.847C66.0698 512.23 65.6785 514.052 64.8959 515.312C64.1273 516.573 62.9953 517.204 61.5 517.204C60.0187 517.204 58.8867 516.573 58.1041 515.312C57.3215 514.052 56.9302 512.23 56.9302 509.847C56.9302 507.478 57.3215 505.663 58.1041 504.402C58.8867 503.141 60.0187 502.511 61.5 502.511ZM58.4185 509.847C58.4185 511.537 58.5723 512.86 58.8797 513.816L63.5334 504.61C63.0442 503.958 62.3664 503.633 61.5 503.633C60.5357 503.633 59.7811 504.145 59.2361 505.171C58.691 506.182 58.4185 507.741 58.4185 509.847ZM61.5 516.061C62.4782 516.061 63.2399 515.555 63.7849 514.543C64.3299 513.518 64.6024 511.953 64.6024 509.847C64.6024 508.059 64.4277 506.674 64.0784 505.69L59.4247 514.98C59.9278 515.7 60.6196 516.061 61.5 516.061Z" fill="url(#paint41_linear_175_1868)" fill-opacity="0.6"/>
<path d="M100.43 288.751C101.926 288.751 103.057 289.381 103.826 290.642C104.609 291.889 105 293.704 105 296.087C105 298.47 104.609 300.292 103.826 301.553C103.057 302.814 101.926 303.444 100.43 303.444C98.9489 303.444 97.8169 302.814 97.0343 301.553C96.2517 300.292 95.8604 298.47 95.8604 296.087C95.8604 293.718 96.2517 291.903 97.0343 290.642C97.8169 289.381 98.9489 288.751 100.43 288.751ZM97.3487 296.087C97.3487 297.777 97.5024 299.101 97.8099 300.057L102.464 290.85C101.974 290.199 101.297 289.873 100.43 289.873C99.4659 289.873 98.7113 290.386 98.1663 291.411C97.6212 292.423 97.3487 293.981 97.3487 296.087ZM100.43 302.301C101.408 302.301 102.17 301.795 102.715 300.784C103.26 299.759 103.533 298.193 103.533 296.087C103.533 294.3 103.358 292.914 103.009 291.931L98.3549 301.22C98.858 301.941 99.5498 302.301 100.43 302.301Z" fill="url(#paint42_linear_175_1868)" fill-opacity="0.6"/>
<path d="M101.688 325.886H104.769V326.987H96.7827V325.886H100.346V314.206L96.9504 316.222L96.3635 315.287L100.556 312.71H101.688V325.886Z" fill="url(#paint43_linear_175_1868)" fill-opacity="0.6"/>
<path d="M101.688 349.637H104.769V350.738H96.7827V349.637H100.346V337.957L96.9504 339.973L96.3635 339.038L100.556 336.461H101.688V349.637Z" fill="url(#paint44_linear_175_1868)" fill-opacity="0.6"/>
<path d="M100.43 360.004C101.926 360.004 103.057 360.635 103.826 361.895C104.609 363.142 105 364.957 105 367.34C105 369.723 104.609 371.545 103.826 372.806C103.057 374.067 101.926 374.697 100.43 374.697C98.9489 374.697 97.8169 374.067 97.0343 372.806C96.2517 371.545 95.8604 369.723 95.8604 367.34C95.8604 364.971 96.2517 363.156 97.0343 361.895C97.8169 360.635 98.9489 360.004 100.43 360.004ZM97.3487 367.34C97.3487 369.031 97.5024 370.354 97.8099 371.31L102.464 362.103C101.974 361.452 101.297 361.126 100.43 361.126C99.4659 361.126 98.7113 361.639 98.1663 362.664C97.6212 363.676 97.3487 365.234 97.3487 367.34ZM100.43 373.554C101.408 373.554 102.17 373.049 102.715 372.037C103.26 371.012 103.533 369.446 103.533 367.34C103.533 365.553 103.358 364.168 103.009 363.184L98.3549 372.474C98.858 373.194 99.5498 373.554 100.43 373.554Z" fill="url(#paint45_linear_175_1868)" fill-opacity="0.6"/>
<path d="M100.43 383.755C101.926 383.755 103.057 384.386 103.826 385.646C104.609 386.893 105 388.708 105 391.091C105 393.474 104.609 395.296 103.826 396.557C103.057 397.818 101.926 398.448 100.43 398.448C98.9489 398.448 97.8169 397.818 97.0343 396.557C96.2517 395.296 95.8604 393.474 95.8604 391.091C95.8604 388.722 96.2517 386.907 97.0343 385.646C97.8169 384.386 98.9489 383.755 100.43 383.755ZM97.3487 391.091C97.3487 392.782 97.5024 394.105 97.8099 395.061L102.464 385.854C101.974 385.203 101.297 384.878 100.43 384.878C99.4659 384.878 98.7113 385.39 98.1663 386.415C97.6212 387.427 97.3487 388.985 97.3487 391.091ZM100.43 397.305C101.408 397.305 102.17 396.8 102.715 395.788C103.26 394.763 103.533 393.197 103.533 391.091C103.533 389.304 103.358 387.919 103.009 386.935L98.3549 396.225C98.858 396.945 99.5498 397.305 100.43 397.305Z" fill="url(#paint46_linear_175_1868)" fill-opacity="0.6"/>
<g opacity="0.6">
<path d="M928.93 -35C930.356 -35 931.436 -34.395 932.17 -33.1851C932.916 -31.9885 933.29 -30.2468 933.29 -27.9599C933.29 -25.673 932.916 -23.9246 932.17 -22.7147C931.436 -21.5048 930.356 -20.8998 928.93 -20.8998C927.517 -20.8998 926.437 -21.5048 925.69 -22.7147C924.943 -23.9246 924.57 -25.673 924.57 -27.9599C924.57 -30.2335 924.943 -31.9752 925.69 -33.1851C926.437 -34.395 927.517 -35 928.93 -35ZM925.99 -27.9599C925.99 -26.3378 926.137 -25.068 926.43 -24.1506L930.87 -32.9857C930.403 -33.6106 929.756 -33.923 928.93 -33.923C928.01 -33.923 927.29 -33.4311 926.77 -32.4472C926.25 -31.4766 925.99 -29.9808 925.99 -27.9599ZM928.93 -21.9967C929.863 -21.9967 930.59 -22.482 931.11 -23.4526C931.63 -24.4365 931.89 -25.9389 931.89 -27.9599C931.89 -29.675 931.723 -31.0046 931.39 -31.9486L926.95 -23.0338C927.43 -22.3424 928.09 -21.9967 928.93 -21.9967Z" fill="url(#paint47_linear_175_1868)"/>
<path d="M930.13 0.636547H933.07V1.69356H925.45V0.636547H928.85V-10.5718L925.61 -8.63727L925.05 -9.53474L929.05 -12.0078H930.13V0.636547Z" fill="url(#paint48_linear_175_1868)"/>
<path d="M928.93 10.5856C930.356 10.5856 931.436 11.1906 932.17 12.4005C932.916 13.5971 933.29 15.3389 933.29 17.6257C933.29 19.9126 932.916 21.661 932.17 22.8709C931.436 24.0808 930.356 24.6858 928.93 24.6858C927.517 24.6858 926.437 24.0808 925.69 22.8709C924.943 21.661 924.57 19.9126 924.57 17.6257C924.57 15.3521 924.943 13.6104 925.69 12.4005C926.437 11.1906 927.517 10.5856 928.93 10.5856ZM925.99 17.6257C925.99 19.2478 926.137 20.5176 926.43 21.435L930.87 12.5999C930.403 11.975 929.756 11.6626 928.93 11.6626C928.01 11.6626 927.29 12.1545 926.77 13.1384C926.25 14.109 925.99 15.6048 925.99 17.6257ZM928.93 23.5889C929.863 23.5889 930.59 23.1036 931.11 22.133C931.63 21.1491 931.89 19.6467 931.89 17.6257C931.89 15.9106 931.723 14.581 931.39 13.637L926.95 22.5518C927.43 23.2432 928.09 23.5889 928.93 23.5889Z" fill="url(#paint49_linear_175_1868)"/>
<path d="M930.13 46.2221H933.07V47.2792H925.45V46.2221H928.85V35.0138L925.61 36.9483L925.05 36.0509L929.05 33.5778H930.13V46.2221Z" fill="url(#paint50_linear_175_1868)"/>
<path d="M930.13 69.015H933.07V70.072H925.45V69.015H928.85V57.8066L925.61 59.7411L925.05 58.8437L929.05 56.3706H930.13V69.015Z" fill="url(#paint51_linear_175_1868)"/>
<path d="M928.93 78.964C930.356 78.964 931.436 79.569 932.17 80.7789C932.916 81.9755 933.29 83.7173 933.29 86.0041C933.29 88.291 932.916 90.0394 932.17 91.2493C931.436 92.4593 930.356 93.0642 928.93 93.0642C927.517 93.0642 926.437 92.4593 925.69 91.2493C924.943 90.0394 924.57 88.291 924.57 86.0041C924.57 83.7306 924.943 81.9888 925.69 80.7789C926.437 79.569 927.517 78.964 928.93 78.964ZM925.99 86.0041C925.99 87.6262 926.137 88.896 926.43 89.8134L930.87 80.9783C930.403 80.3534 929.756 80.041 928.93 80.041C928.01 80.041 927.29 80.5329 926.77 81.5168C926.25 82.4874 925.99 83.9832 925.99 86.0041ZM928.93 91.9673C929.863 91.9673 930.59 91.482 931.11 90.5114C931.63 89.5275 931.89 88.0251 931.89 86.0041C931.89 84.289 931.723 82.9594 931.39 82.0154L926.95 90.9302C927.43 91.6216 928.09 91.9673 928.93 91.9673Z" fill="url(#paint52_linear_175_1868)"/>
<path d="M930.13 114.601H933.07V115.658H925.45V114.601H928.85V103.392L925.61 105.327L925.05 104.429L929.05 101.956H930.13V114.601Z" fill="url(#paint53_linear_175_1868)"/>
<path d="M928.93 124.55C930.356 124.55 931.436 125.155 932.17 126.365C932.916 127.561 933.29 129.303 933.29 131.59C933.29 133.877 932.916 135.625 932.17 136.835C931.436 138.045 930.356 138.65 928.93 138.65C927.517 138.65 926.437 138.045 925.69 136.835C924.943 135.625 924.57 133.877 924.57 131.59C924.57 129.316 924.943 127.574 925.69 126.365C926.437 125.155 927.517 124.55 928.93 124.55ZM925.99 131.59C925.99 133.212 926.137 134.482 926.43 135.399L930.87 126.564C930.403 125.939 929.756 125.627 928.93 125.627C928.01 125.627 927.29 126.119 926.77 127.102C926.25 128.073 925.99 129.569 925.99 131.59ZM928.93 137.553C929.863 137.553 930.59 137.068 931.11 136.097C931.63 135.113 931.89 133.611 931.89 131.59C931.89 129.875 931.723 128.545 931.39 127.601L926.95 136.516C927.43 137.207 928.09 137.553 928.93 137.553Z" fill="url(#paint54_linear_175_1868)"/>
<path d="M928.93 147.342C930.356 147.342 931.436 147.947 932.17 149.157C932.916 150.354 933.29 152.096 933.29 154.383C933.29 156.669 932.916 158.418 932.17 159.628C931.436 160.838 930.356 161.443 928.93 161.443C927.517 161.443 926.437 160.838 925.69 159.628C924.943 158.418 924.57 156.669 924.57 154.383C924.57 152.109 924.943 150.367 925.69 149.157C926.437 147.947 927.517 147.342 928.93 147.342ZM925.99 154.383C925.99 156.005 926.137 157.274 926.43 158.192L930.87 149.357C930.403 148.732 929.756 148.419 928.93 148.419C928.01 148.419 927.29 148.911 926.77 149.895C926.25 150.866 925.99 152.362 925.99 154.383ZM928.93 160.346C929.863 160.346 930.59 159.86 931.11 158.89C931.63 157.906 931.89 156.404 931.89 154.383C931.89 152.667 931.723 151.338 931.39 150.394L926.95 159.309C927.43 160 928.09 160.346 928.93 160.346Z" fill="url(#paint55_linear_175_1868)"/>
<path d="M930.13 182.979H933.07V184.036H925.45V182.979H928.85V171.771L925.61 173.705L925.05 172.808L929.05 170.335H930.13V182.979Z" fill="url(#paint56_linear_175_1868)"/>
<path d="M928.93 192.928C930.356 192.928 931.436 193.533 932.17 194.743C932.916 195.94 933.29 197.681 933.29 199.968C933.29 202.255 932.916 204.003 932.17 205.213C931.436 206.423 930.356 207.028 928.93 207.028C927.517 207.028 926.437 206.423 925.69 205.213C924.943 204.003 924.57 202.255 924.57 199.968C924.57 197.695 924.943 195.953 925.69 194.743C926.437 193.533 927.517 192.928 928.93 192.928ZM925.99 199.968C925.99 201.59 926.137 202.86 926.43 203.777L930.87 194.942C930.403 194.317 929.756 194.005 928.93 194.005C928.01 194.005 927.29 194.497 926.77 195.481C926.25 196.451 925.99 197.947 925.99 199.968ZM928.93 205.931C929.863 205.931 930.59 205.446 931.11 204.475C931.63 203.492 931.89 201.989 931.89 199.968C931.89 198.253 931.723 196.923 931.39 195.979L926.95 204.894C927.43 205.586 928.09 205.931 928.93 205.931Z" fill="url(#paint57_linear_175_1868)"/>
<path d="M930.13 228.565H933.07V229.622H925.45V228.565H928.85V217.356L925.61 219.291L925.05 218.393L929.05 215.92H930.13V228.565Z" fill="url(#paint58_linear_175_1868)"/>
<path d="M930.13 251.357H933.07V252.414H925.45V251.357H928.85V240.149L925.61 242.084L925.05 241.186L929.05 238.713H930.13V251.357Z" fill="url(#paint59_linear_175_1868)"/>
<path d="M966.07 10.5856C967.497 10.5856 968.577 11.1906 969.31 12.4005C970.057 13.5971 970.43 15.3389 970.43 17.6257C970.43 19.9126 970.057 21.661 969.31 22.8709C968.577 24.0808 967.497 24.6858 966.07 24.6858C964.657 24.6858 963.577 24.0808 962.83 22.8709C962.084 21.661 961.71 19.9126 961.71 17.6257C961.71 15.3521 962.084 13.6104 962.83 12.4005C963.577 11.1906 964.657 10.5856 966.07 10.5856ZM963.13 17.6257C963.13 19.2478 963.277 20.5176 963.57 21.435L968.01 12.5999C967.543 11.975 966.897 11.6626 966.07 11.6626C965.15 11.6626 964.43 12.1545 963.91 13.1384C963.39 14.109 963.13 15.6048 963.13 17.6257ZM966.07 23.5889C967.003 23.5889 967.73 23.1036 968.25 22.133C968.77 21.1491 969.03 19.6467 969.03 17.6257C969.03 15.9106 968.863 14.581 968.53 13.637L964.09 22.5518C964.57 23.2432 965.23 23.5889 966.07 23.5889Z" fill="url(#paint60_linear_175_1868)"/>
<path d="M967.27 46.2221H970.21V47.2792H962.59V46.2221H965.99V35.0138L962.75 36.9483L962.19 36.0509L966.19 33.5778H967.27V46.2221Z" fill="url(#paint61_linear_175_1868)"/>
<path d="M966.07 56.1712C967.497 56.1712 968.577 56.7762 969.31 57.9861C970.057 59.1827 970.43 60.9245 970.43 63.2113C970.43 65.4982 970.057 67.2466 969.31 68.4565C968.577 69.6665 967.497 70.2714 966.07 70.2714C964.657 70.2714 963.577 69.6665 962.83 68.4565C962.084 67.2466 961.71 65.4982 961.71 63.2113C961.71 60.9378 962.084 59.196 962.83 57.9861C963.577 56.7762 964.657 56.1712 966.07 56.1712ZM963.13 63.2113C963.13 64.8334 963.277 66.1032 963.57 67.0206L968.01 58.1855C967.543 57.5606 966.897 57.2482 966.07 57.2482C965.15 57.2482 964.43 57.7401 963.91 58.724C963.39 59.6946 963.13 61.1904 963.13 63.2113ZM966.07 69.1745C967.003 69.1745 967.73 68.6892 968.25 67.7186C968.77 66.7347 969.03 65.2323 969.03 63.2113C969.03 61.4962 968.863 60.1666 968.53 59.2226L964.09 68.1374C964.57 68.8288 965.23 69.1745 966.07 69.1745Z" fill="url(#paint62_linear_175_1868)"/>
<path d="M966.07 78.964C967.497 78.964 968.577 79.569 969.31 80.7789C970.057 81.9755 970.43 83.7173 970.43 86.0041C970.43 88.291 970.057 90.0394 969.31 91.2493C968.577 92.4593 967.497 93.0642 966.07 93.0642C964.657 93.0642 963.577 92.4593 962.83 91.2493C962.084 90.0394 961.71 88.291 961.71 86.0041C961.71 83.7306 962.084 81.9888 962.83 80.7789C963.577 79.569 964.657 78.964 966.07 78.964ZM963.13 86.0041C963.13 87.6262 963.277 88.896 963.57 89.8134L968.01 80.9783C967.543 80.3534 966.897 80.041 966.07 80.041C965.15 80.041 964.43 80.5329 963.91 81.5168C963.39 82.4874 963.13 83.9832 963.13 86.0041ZM966.07 91.9673C967.003 91.9673 967.73 91.482 968.25 90.5114C968.77 89.5275 969.03 88.0251 969.03 86.0041C969.03 84.289 968.863 82.9594 968.53 82.0154L964.09 90.9302C964.57 91.6216 965.23 91.9673 966.07 91.9673Z" fill="url(#paint63_linear_175_1868)"/>
<path d="M967.27 114.601H970.21V115.658H962.59V114.601H965.99V103.392L962.75 105.327L962.19 104.429L966.19 101.956H967.27V114.601Z" fill="url(#paint64_linear_175_1868)"/>
<path d="M966.07 124.55C967.497 124.55 968.577 125.155 969.31 126.365C970.057 127.561 970.43 129.303 970.43 131.59C970.43 133.877 970.057 135.625 969.31 136.835C968.577 138.045 967.497 138.65 966.07 138.65C964.657 138.65 963.577 138.045 962.83 136.835C962.084 135.625 961.71 133.877 961.71 131.59C961.71 129.316 962.084 127.574 962.83 126.365C963.577 125.155 964.657 124.55 966.07 124.55ZM963.13 131.59C963.13 133.212 963.277 134.482 963.57 135.399L968.01 126.564C967.543 125.939 966.897 125.627 966.07 125.627C965.15 125.627 964.43 126.119 963.91 127.102C963.39 128.073 963.13 129.569 963.13 131.59ZM966.07 137.553C967.003 137.553 967.73 137.068 968.25 136.097C968.77 135.113 969.03 133.611 969.03 131.59C969.03 129.875 968.863 128.545 968.53 127.601L964.09 136.516C964.57 137.207 965.23 137.553 966.07 137.553Z" fill="url(#paint65_linear_175_1868)"/>
<path d="M967.27 160.186H970.21V161.243H962.59V160.186H965.99V148.978L962.75 150.912L962.19 150.015L966.19 147.542H967.27V160.186Z" fill="url(#paint66_linear_175_1868)"/>
<path d="M966.07 170.135C967.497 170.135 968.577 170.74 969.31 171.95C970.057 173.147 970.43 174.888 970.43 177.175C970.43 179.462 970.057 181.211 969.31 182.421C968.577 183.63 967.497 184.235 966.07 184.235C964.657 184.235 963.577 183.63 962.83 182.421C962.084 181.211 961.71 179.462 961.71 177.175C961.71 174.902 962.084 173.16 962.83 171.95C963.577 170.74 964.657 170.135 966.07 170.135ZM963.13 177.175C963.13 178.797 963.277 180.067 963.57 180.985L968.01 172.15C967.543 171.525 966.897 171.212 966.07 171.212C965.15 171.212 964.43 171.704 963.91 172.688C963.39 173.659 963.13 175.154 963.13 177.175ZM966.07 183.139C967.003 183.139 967.73 182.653 968.25 181.683C968.77 180.699 969.03 179.196 969.03 177.175C969.03 175.46 968.863 174.131 968.53 173.187L964.09 182.101C964.57 182.793 965.23 183.139 966.07 183.139Z" fill="url(#paint67_linear_175_1868)"/>
<path d="M966.07 192.928C967.497 192.928 968.577 193.533 969.31 194.743C970.057 195.94 970.43 197.681 970.43 199.968C970.43 202.255 970.057 204.003 969.31 205.213C968.577 206.423 967.497 207.028 966.07 207.028C964.657 207.028 963.577 206.423 962.83 205.213C962.084 204.003 961.71 202.255 961.71 199.968C961.71 197.695 962.084 195.953 962.83 194.743C963.577 193.533 964.657 192.928 966.07 192.928ZM963.13 199.968C963.13 201.59 963.277 202.86 963.57 203.777L968.01 194.942C967.543 194.317 966.897 194.005 966.07 194.005C965.15 194.005 964.43 194.497 963.91 195.481C963.39 196.451 963.13 197.947 963.13 199.968ZM966.07 205.931C967.003 205.931 967.73 205.446 968.25 204.475C968.77 203.492 969.03 201.989 969.03 199.968C969.03 198.253 968.863 196.923 968.53 195.979L964.09 204.894C964.57 205.586 965.23 205.931 966.07 205.931Z" fill="url(#paint68_linear_175_1868)"/>
<path d="M967.27 228.565H970.21V229.622H962.59V228.565H965.99V217.356L962.75 219.291L962.19 218.393L966.19 215.92H967.27V228.565Z" fill="url(#paint69_linear_175_1868)"/>
<path d="M966.07 238.514C967.497 238.514 968.577 239.119 969.31 240.329C970.057 241.525 970.43 243.267 970.43 245.554C970.43 247.841 970.057 249.589 969.31 250.799C968.577 252.009 967.497 252.614 966.07 252.614C964.657 252.614 963.577 252.009 962.83 250.799C962.084 249.589 961.71 247.841 961.71 245.554C961.71 243.28 962.084 241.538 962.83 240.329C963.577 239.119 964.657 238.514 966.07 238.514ZM963.13 245.554C963.13 247.176 963.277 248.446 963.57 249.363L968.01 240.528C967.543 239.903 966.897 239.591 966.07 239.591C965.15 239.591 964.43 240.083 963.91 241.066C963.39 242.037 963.13 243.533 963.13 245.554ZM966.07 251.517C967.003 251.517 967.73 251.032 968.25 250.061C968.77 249.077 969.03 247.575 969.03 245.554C969.03 243.839 968.863 242.509 968.53 241.565L964.09 250.48C964.57 251.171 965.23 251.517 966.07 251.517Z" fill="url(#paint70_linear_175_1868)"/>
<path d="M967.27 274.15H970.21V275.207H962.59V274.15H965.99V262.942L962.75 264.876L962.19 263.979L966.19 261.506H967.27V274.15Z" fill="url(#paint71_linear_175_1868)"/>
<path d="M967.27 296.943H970.21V298H962.59V296.943H965.99V285.735L962.75 287.669L962.19 286.772L966.19 284.299H967.27V296.943Z" fill="url(#paint72_linear_175_1868)"/>
<path d="M910.36 33.3784C911.786 33.3784 912.866 33.9834 913.599 35.1933C914.346 36.3899 914.719 38.1317 914.719 40.4185C914.719 42.7054 914.346 44.4538 913.599 45.6637C912.866 46.8736 911.786 47.4786 910.36 47.4786C908.946 47.4786 907.867 46.8736 907.12 45.6637C906.373 44.4538 906 42.7054 906 40.4185C906 38.145 906.373 36.4032 907.12 35.1933C907.867 33.9834 908.946 33.3784 910.36 33.3784ZM907.42 40.4185C907.42 42.0406 907.567 43.3104 907.86 44.2278L912.3 35.3927C911.833 34.7678 911.186 34.4554 910.36 34.4554C909.44 34.4554 908.72 34.9473 908.2 35.9312C907.68 36.9018 907.42 38.3976 907.42 40.4185ZM910.36 46.3817C911.293 46.3817 912.02 45.8964 912.54 44.9258C913.06 43.9419 913.319 42.4395 913.319 40.4185C913.319 38.7034 913.153 37.3738 912.82 36.4298L908.38 45.3446C908.86 46.036 909.52 46.3817 910.36 46.3817Z" fill="url(#paint73_linear_175_1868)"/>
<path d="M910.36 56.1712C911.786 56.1712 912.866 56.7762 913.599 57.9861C914.346 59.1827 914.719 60.9245 914.719 63.2113C914.719 65.4982 914.346 67.2466 913.599 68.4565C912.866 69.6665 911.786 70.2714 910.36 70.2714C908.946 70.2714 907.867 69.6665 907.12 68.4565C906.373 67.2466 906 65.4982 906 63.2113C906 60.9378 906.373 59.196 907.12 57.9861C907.867 56.7762 908.946 56.1712 910.36 56.1712ZM907.42 63.2113C907.42 64.8334 907.567 66.1032 907.86 67.0206L912.3 58.1855C911.833 57.5606 911.186 57.2482 910.36 57.2482C909.44 57.2482 908.72 57.7401 908.2 58.724C907.68 59.6946 907.42 61.1904 907.42 63.2113ZM910.36 69.1745C911.293 69.1745 912.02 68.6892 912.54 67.7186C913.06 66.7347 913.319 65.2323 913.319 63.2113C913.319 61.4962 913.153 60.1666 912.82 59.2226L908.38 68.1374C908.86 68.8288 909.52 69.1745 910.36 69.1745Z" fill="url(#paint74_linear_175_1868)"/>
<path d="M911.56 91.8078H914.499V92.8648H906.88V91.8078H910.28V80.5994L907.04 82.5339L906.48 81.6365L910.48 79.1635H911.56V91.8078Z" fill="url(#paint75_linear_175_1868)"/>
<path d="M910.36 101.757C911.786 101.757 912.866 102.362 913.599 103.572C914.346 104.768 914.719 106.51 914.719 108.797C914.719 111.084 914.346 112.832 913.599 114.042C912.866 115.252 911.786 115.857 910.36 115.857C908.946 115.857 907.867 115.252 907.12 114.042C906.373 112.832 906 111.084 906 108.797C906 106.523 906.373 104.782 907.12 103.572C907.867 102.362 908.946 101.757 910.36 101.757ZM907.42 108.797C907.42 110.419 907.567 111.689 907.86 112.606L912.3 103.771C911.833 103.146 911.186 102.834 910.36 102.834C909.44 102.834 908.72 103.326 908.2 104.31C907.68 105.28 907.42 106.776 907.42 108.797ZM910.36 114.76C911.293 114.76 912.02 114.275 912.54 113.304C913.06 112.32 913.319 110.818 913.319 108.797C913.319 107.082 913.153 105.752 912.82 104.808L908.38 113.723C908.86 114.414 909.52 114.76 910.36 114.76Z" fill="url(#paint76_linear_175_1868)"/>
<path d="M911.56 137.393H914.499V138.45H906.88V137.393H910.28V126.185L907.04 128.12L906.48 127.222L910.48 124.749H911.56V137.393Z" fill="url(#paint77_linear_175_1868)"/>
<path d="M911.56 160.186H914.499V161.243H906.88V160.186H910.28V148.978L907.04 150.912L906.48 150.015L910.48 147.542H911.56V160.186Z" fill="url(#paint78_linear_175_1868)"/>
<path d="M948.7 0.636547H951.64V1.69356H944.02V0.636547H947.42V-10.5718L944.18 -8.63727L943.62 -9.53474L947.62 -12.0078H948.7V0.636547Z" fill="url(#paint79_linear_175_1868)"/>
<path d="M947.5 10.5856C948.927 10.5856 950.006 11.1906 950.74 12.4005C951.486 13.5971 951.86 15.3389 951.86 17.6257C951.86 19.9126 951.486 21.661 950.74 22.8709C950.006 24.0808 948.927 24.6858 947.5 24.6858C946.087 24.6858 945.007 24.0808 944.26 22.8709C943.514 21.661 943.14 19.9126 943.14 17.6257C943.14 15.3521 943.514 13.6104 944.26 12.4005C945.007 11.1906 946.087 10.5856 947.5 10.5856ZM944.56 17.6257C944.56 19.2478 944.707 20.5176 945 21.435L949.44 12.5999C948.973 11.975 948.327 11.6626 947.5 11.6626C946.58 11.6626 945.86 12.1545 945.34 13.1384C944.82 14.109 944.56 15.6048 944.56 17.6257ZM947.5 23.5889C948.433 23.5889 949.16 23.1036 949.68 22.133C950.2 21.1491 950.46 19.6467 950.46 17.6257C950.46 15.9106 950.293 14.581 949.96 13.637L945.52 22.5518C946 23.2432 946.66 23.5889 947.5 23.5889Z" fill="url(#paint80_linear_175_1868)"/>
<path d="M948.7 46.2221H951.64V47.2792H944.02V46.2221H947.42V35.0138L944.18 36.9483L943.62 36.0509L947.62 33.5778H948.7V46.2221Z" fill="url(#paint81_linear_175_1868)"/>
<path d="M948.7 69.015H951.64V70.072H944.02V69.015H947.42V57.8066L944.18 59.7411L943.62 58.8437L947.62 56.3706H948.7V69.015Z" fill="url(#paint82_linear_175_1868)"/>
<path d="M947.5 78.964C948.927 78.964 950.006 79.569 950.74 80.7789C951.486 81.9755 951.86 83.7173 951.86 86.0041C951.86 88.291 951.486 90.0394 950.74 91.2493C950.006 92.4593 948.927 93.0642 947.5 93.0642C946.087 93.0642 945.007 92.4593 944.26 91.2493C943.514 90.0394 943.14 88.291 943.14 86.0041C943.14 83.7306 943.514 81.9888 944.26 80.7789C945.007 79.569 946.087 78.964 947.5 78.964ZM944.56 86.0041C944.56 87.6262 944.707 88.896 945 89.8134L949.44 80.9783C948.973 80.3534 948.327 80.041 947.5 80.041C946.58 80.041 945.86 80.5329 945.34 81.5168C944.82 82.4874 944.56 83.9832 944.56 86.0041ZM947.5 91.9673C948.433 91.9673 949.16 91.482 949.68 90.5114C950.2 89.5275 950.46 88.0251 950.46 86.0041C950.46 84.289 950.293 82.9594 949.96 82.0154L945.52 90.9302C946 91.6216 946.66 91.9673 947.5 91.9673Z" fill="url(#paint83_linear_175_1868)"/>
<path d="M948.7 114.601H951.64V115.658H944.02V114.601H947.42V103.392L944.18 105.327L943.62 104.429L947.62 101.956H948.7V114.601Z" fill="url(#paint84_linear_175_1868)"/>
<path d="M948.7 137.393H951.64V138.45H944.02V137.393H947.42V126.185L944.18 128.12L943.62 127.222L947.62 124.749H948.7V137.393Z" fill="url(#paint85_linear_175_1868)"/>
<path d="M947.5 147.342C948.927 147.342 950.006 147.947 950.74 149.157C951.486 150.354 951.86 152.096 951.86 154.383C951.86 156.669 951.486 158.418 950.74 159.628C950.006 160.838 948.927 161.443 947.5 161.443C946.087 161.443 945.007 160.838 944.26 159.628C943.514 158.418 943.14 156.669 943.14 154.383C943.14 152.109 943.514 150.367 944.26 149.157C945.007 147.947 946.087 147.342 947.5 147.342ZM944.56 154.383C944.56 156.005 944.707 157.274 945 158.192L949.44 149.357C948.973 148.732 948.327 148.419 947.5 148.419C946.58 148.419 945.86 148.911 945.34 149.895C944.82 150.866 944.56 152.362 944.56 154.383ZM947.5 160.346C948.433 160.346 949.16 159.86 949.68 158.89C950.2 157.906 950.46 156.404 950.46 154.383C950.46 152.667 950.293 151.338 949.96 150.394L945.52 159.309C946 160 946.66 160.346 947.5 160.346Z" fill="url(#paint86_linear_175_1868)"/>
<path d="M948.7 182.979H951.64V184.036H944.02V182.979H947.42V171.771L944.18 173.705L943.62 172.808L947.62 170.335H948.7V182.979Z" fill="url(#paint87_linear_175_1868)"/>
<path d="M947.5 192.928C948.927 192.928 950.006 193.533 950.74 194.743C951.486 195.94 951.86 197.681 951.86 199.968C951.86 202.255 951.486 204.003 950.74 205.213C950.006 206.423 948.927 207.028 947.5 207.028C946.087 207.028 945.007 206.423 944.26 205.213C943.514 204.003 943.14 202.255 943.14 199.968C943.14 197.695 943.514 195.953 944.26 194.743C945.007 193.533 946.087 192.928 947.5 192.928ZM944.56 199.968C944.56 201.59 944.707 202.86 945 203.777L949.44 194.942C948.973 194.317 948.327 194.005 947.5 194.005C946.58 194.005 945.86 194.497 945.34 195.481C944.82 196.451 944.56 197.947 944.56 199.968ZM947.5 205.931C948.433 205.931 949.16 205.446 949.68 204.475C950.2 203.492 950.46 201.989 950.46 199.968C950.46 198.253 950.293 196.923 949.96 195.979L945.52 204.894C946 205.586 946.66 205.931 947.5 205.931Z" fill="url(#paint88_linear_175_1868)"/>
<path d="M984.64 -12.2072C986.067 -12.2072 987.147 -11.6022 987.88 -10.3923C988.627 -9.1957 989 -7.45395 989 -5.16707C989 -2.8802 988.627 -1.13179 987.88 0.078125C987.147 1.28804 986.067 1.893 984.64 1.893C983.227 1.893 982.147 1.28804 981.401 0.078125C980.654 -1.13179 980.281 -2.8802 980.281 -5.16707C980.281 -7.44065 980.654 -9.1824 981.401 -10.3923C982.147 -11.6022 983.227 -12.2072 984.64 -12.2072ZM981.701 -5.16707C981.701 -3.54498 981.847 -2.27523 982.14 -1.35782L986.58 -10.1929C986.114 -10.8178 985.467 -11.1302 984.64 -11.1302C983.72 -11.1302 983 -10.6383 982.48 -9.6544C981.96 -8.68381 981.701 -7.18803 981.701 -5.16707ZM984.64 0.796097C985.574 0.796097 986.3 0.310802 986.82 -0.659794C987.34 -1.64368 987.6 -3.14611 987.6 -5.16707C987.6 -6.88223 987.433 -8.21181 987.1 -9.15581L982.66 -0.240978C983.14 0.450405 983.8 0.796097 984.64 0.796097Z" fill="url(#paint89_linear_175_1868)"/>
<path d="M985.84 23.4293H988.78V24.4864H981.161V23.4293H984.56V12.221L981.321 14.1555L980.761 13.2581L984.76 10.785H985.84V23.4293Z" fill="url(#paint90_linear_175_1868)"/>
<path d="M985.84 46.2221H988.78V47.2792H981.161V46.2221H984.56V35.0138L981.321 36.9483L980.761 36.0509L984.76 33.5778H985.84V46.2221Z" fill="url(#paint91_linear_175_1868)"/>
<path d="M984.64 56.1712C986.067 56.1712 987.147 56.7762 987.88 57.9861C988.627 59.1827 989 60.9245 989 63.2113C989 65.4982 988.627 67.2466 987.88 68.4565C987.147 69.6665 986.067 70.2714 984.64 70.2714C983.227 70.2714 982.147 69.6665 981.401 68.4565C980.654 67.2466 980.281 65.4982 980.281 63.2113C980.281 60.9378 980.654 59.196 981.401 57.9861C982.147 56.7762 983.227 56.1712 984.64 56.1712ZM981.701 63.2113C981.701 64.8334 981.847 66.1032 982.14 67.0206L986.58 58.1855C986.114 57.5606 985.467 57.2482 984.64 57.2482C983.72 57.2482 983 57.7401 982.48 58.724C981.96 59.6946 981.701 61.1904 981.701 63.2113ZM984.64 69.1745C985.574 69.1745 986.3 68.6892 986.82 67.7186C987.34 66.7347 987.6 65.2323 987.6 63.2113C987.6 61.4962 987.433 60.1666 987.1 59.2226L982.66 68.1374C983.14 68.8288 983.8 69.1745 984.64 69.1745Z" fill="url(#paint92_linear_175_1868)"/>
<path d="M984.64 78.964C986.067 78.964 987.147 79.569 987.88 80.7789C988.627 81.9755 989 83.7173 989 86.0041C989 88.291 988.627 90.0394 987.88 91.2493C987.147 92.4593 986.067 93.0642 984.64 93.0642C983.227 93.0642 982.147 92.4593 981.401 91.2493C980.654 90.0394 980.281 88.291 980.281 86.0041C980.281 83.7306 980.654 81.9888 981.401 80.7789C982.147 79.569 983.227 78.964 984.64 78.964ZM981.701 86.0041C981.701 87.6262 981.847 88.896 982.14 89.8134L986.58 80.9783C986.114 80.3534 985.467 80.041 984.64 80.041C983.72 80.041 983 80.5329 982.48 81.5168C981.96 82.4874 981.701 83.9832 981.701 86.0041ZM984.64 91.9673C985.574 91.9673 986.3 91.482 986.82 90.5114C987.34 89.5275 987.6 88.0251 987.6 86.0041C987.6 84.289 987.433 82.9594 987.1 82.0154L982.66 90.9302C983.14 91.6216 983.8 91.9673 984.64 91.9673Z" fill="url(#paint93_linear_175_1868)"/>
</g>
<defs>
<filter id="filter0_f_175_1868" x="-549.19" y="-721.19" width="2141.38" height="1500.38" filterUnits="userSpaceOnUse" color-interpolation-filters="sRGB">
<feFlood flood-opacity="0" result="BackgroundImageFix"/>
<feBlend mode="normal" in="SourceGraphic" in2="BackgroundImageFix" result="shape"/>
<feGaussianBlur stdDeviation="200.095" result="effect1_foregroundBlur_175_1868"/>
</filter>
<linearGradient id="paint0_linear_175_1868" x1="61.5" y1="265" x2="61.5" y2="576.381" gradientUnits="userSpaceOnUse">
<stop stop-color="#F7DD43"/>
<stop offset="1" stop-color="#F7DD43" stop-opacity="0"/>
</linearGradient>
<linearGradient id="paint1_linear_175_1868" x1="61.5" y1="265" x2="61.5" y2="576.381" gradientUnits="userSpaceOnUse">
<stop stop-color="#F7DD43"/>
<stop offset="1" stop-color="#F7DD43" stop-opacity="0"/>
</linearGradient>
<linearGradient id="paint2_linear_175_1868" x1="61.5" y1="265" x2="61.5" y2="576.381" gradientUnits="userSpaceOnUse">
<stop stop-color="#F7DD43"/>
<stop offset="1" stop-color="#F7DD43" stop-opacity="0"/>
</linearGradient>
<linearGradient id="paint3_linear_175_1868" x1="61.5" y1="265" x2="61.5" y2="576.381" gradientUnits="userSpaceOnUse">
<stop stop-color="#F7DD43"/>
<stop offset="1" stop-color="#F7DD43" stop-opacity="0"/>
</linearGradient>
<linearGradient id="paint4_linear_175_1868" x1="61.5" y1="265" x2="61.5" y2="576.381" gradientUnits="userSpaceOnUse">
<stop stop-color="#F7DD43"/>
<stop offset="1" stop-color="#F7DD43" stop-opacity="0"/>
</linearGradient>
<linearGradient id="paint5_linear_175_1868" x1="61.5" y1="265" x2="61.5" y2="576.381" gradientUnits="userSpaceOnUse">
<stop stop-color="#F7DD43"/>
<stop offset="1" stop-color="#F7DD43" stop-opacity="0"/>
</linearGradient>
<linearGradient id="paint6_linear_175_1868" x1="61.5" y1="265" x2="61.5" y2="576.381" gradientUnits="userSpaceOnUse">
<stop stop-color="#F7DD43"/>
<stop offset="1" stop-color="#F7DD43" stop-opacity="0"/>
</linearGradient>
<linearGradient id="paint7_linear_175_1868" x1="61.5" y1="265" x2="61.5" y2="576.381" gradientUnits="userSpaceOnUse">
<stop stop-color="#F7DD43"/>
<stop offset="1" stop-color="#F7DD43" stop-opacity="0"/>
</linearGradient>
<linearGradient id="paint8_linear_175_1868" x1="61.5" y1="265" x2="61.5" y2="576.381" gradientUnits="userSpaceOnUse">
<stop stop-color="#F7DD43"/>
<stop offset="1" stop-color="#F7DD43" stop-opacity="0"/>
</linearGradient>
<linearGradient id="paint9_linear_175_1868" x1="61.5" y1="265" x2="61.5" y2="576.381" gradientUnits="userSpaceOnUse">
<stop stop-color="#F7DD43"/>
<stop offset="1" stop-color="#F7DD43" stop-opacity="0"/>
</linearGradient>
<linearGradient id="paint10_linear_175_1868" x1="61.5" y1="265" x2="61.5" y2="576.381" gradientUnits="userSpaceOnUse">
<stop stop-color="#F7DD43"/>
<stop offset="1" stop-color="#F7DD43" stop-opacity="0"/>
</linearGradient>
<linearGradient id="paint11_linear_175_1868" x1="61.5" y1="265" x2="61.5" y2="576.381" gradientUnits="userSpaceOnUse">
<stop stop-color="#F7DD43"/>
<stop offset="1" stop-color="#F7DD43" stop-opacity="0"/>
</linearGradient>
<linearGradient id="paint12_linear_175_1868" x1="61.5" y1="265" x2="61.5" y2="576.381" gradientUnits="userSpaceOnUse">
<stop stop-color="#F7DD43"/>
<stop offset="1" stop-color="#F7DD43" stop-opacity="0"/>
</linearGradient>
<linearGradient id="paint13_linear_175_1868" x1="61.5" y1="265" x2="61.5" y2="576.381" gradientUnits="userSpaceOnUse">
<stop stop-color="#F7DD43"/>
<stop offset="1" stop-color="#F7DD43" stop-opacity="0"/>
</linearGradient>
<linearGradient id="paint14_linear_175_1868" x1="61.5" y1="265" x2="61.5" y2="576.381" gradientUnits="userSpaceOnUse">
<stop stop-color="#F7DD43"/>
<stop offset="1" stop-color="#F7DD43" stop-opacity="0"/>
</linearGradient>
<linearGradient id="paint15_linear_175_1868" x1="61.5" y1="265" x2="61.5" y2="576.381" gradientUnits="userSpaceOnUse">
<stop stop-color="#F7DD43"/>
<stop offset="1" stop-color="#F7DD43" stop-opacity="0"/>
</linearGradient>
<linearGradient id="paint16_linear_175_1868" x1="61.5" y1="265" x2="61.5" y2="576.381" gradientUnits="userSpaceOnUse">
<stop stop-color="#F7DD43"/>
<stop offset="1" stop-color="#F7DD43" stop-opacity="0"/>
</linearGradient>
<linearGradient id="paint17_linear_175_1868" x1="61.5" y1="265" x2="61.5" y2="576.381" gradientUnits="userSpaceOnUse">
<stop stop-color="#F7DD43"/>
<stop offset="1" stop-color="#F7DD43" stop-opacity="0"/>
</linearGradient>
<linearGradient id="paint18_linear_175_1868" x1="61.5" y1="265" x2="61.5" y2="576.381" gradientUnits="userSpaceOnUse">
<stop stop-color="#F7DD43"/>
<stop offset="1" stop-color="#F7DD43" stop-opacity="0"/>
</linearGradient>
<linearGradient id="paint19_linear_175_1868" x1="61.5" y1="265" x2="61.5" y2="576.381" gradientUnits="userSpaceOnUse">
<stop stop-color="#F7DD43"/>
<stop offset="1" stop-color="#F7DD43" stop-opacity="0"/>
</linearGradient>
<linearGradient id="paint20_linear_175_1868" x1="61.5" y1="265" x2="61.5" y2="576.381" gradientUnits="userSpaceOnUse">
<stop stop-color="#F7DD43"/>
<stop offset="1" stop-color="#F7DD43" stop-opacity="0"/>
</linearGradient>
<linearGradient id="paint21_linear_175_1868" x1="61.5" y1="265" x2="61.5" y2="576.381" gradientUnits="userSpaceOnUse">
<stop stop-color="#F7DD43"/>
<stop offset="1" stop-color="#F7DD43" stop-opacity="0"/>
</linearGradient>
<linearGradient id="paint22_linear_175_1868" x1="61.5" y1="265" x2="61.5" y2="576.381" gradientUnits="userSpaceOnUse">
<stop stop-color="#F7DD43"/>
<stop offset="1" stop-color="#F7DD43" stop-opacity="0"/>
</linearGradient>
<linearGradient id="paint23_linear_175_1868" x1="61.5" y1="265" x2="61.5" y2="576.381" gradientUnits="userSpaceOnUse">
<stop stop-color="#F7DD43"/>
<stop offset="1" stop-color="#F7DD43" stop-opacity="0"/>
</linearGradient>
<linearGradient id="paint24_linear_175_1868" x1="61.5" y1="265" x2="61.5" y2="576.381" gradientUnits="userSpaceOnUse">
<stop stop-color="#F7DD43"/>
<stop offset="1" stop-color="#F7DD43" stop-opacity="0"/>
</linearGradient>
<linearGradient id="paint25_linear_175_1868" x1="61.5" y1="265" x2="61.5" y2="576.381" gradientUnits="userSpaceOnUse">
<stop stop-color="#F7DD43"/>
<stop offset="1" stop-color="#F7DD43" stop-opacity="0"/>
</linearGradient>
<linearGradient id="paint26_linear_175_1868" x1="61.5" y1="265" x2="61.5" y2="576.381" gradientUnits="userSpaceOnUse">
<stop stop-color="#F7DD43"/>
<stop offset="1" stop-color="#F7DD43" stop-opacity="0"/>
</linearGradient>
<linearGradient id="paint27_linear_175_1868" x1="61.5" y1="265" x2="61.5" y2="576.381" gradientUnits="userSpaceOnUse">
<stop stop-color="#F7DD43"/>
<stop offset="1" stop-color="#F7DD43" stop-opacity="0"/>
</linearGradient>
<linearGradient id="paint28_linear_175_1868" x1="61.5" y1="265" x2="61.5" y2="576.381" gradientUnits="userSpaceOnUse">
<stop stop-color="#F7DD43"/>
<stop offset="1" stop-color="#F7DD43" stop-opacity="0"/>
</linearGradient>
<linearGradient id="paint29_linear_175_1868" x1="61.5" y1="265" x2="61.5" y2="576.381" gradientUnits="userSpaceOnUse">
<stop stop-color="#F7DD43"/>
<stop offset="1" stop-color="#F7DD43" stop-opacity="0"/>
</linearGradient>
<linearGradient id="paint30_linear_175_1868" x1="61.5" y1="265" x2="61.5" y2="576.381" gradientUnits="userSpaceOnUse">
<stop stop-color="#F7DD43"/>
<stop offset="1" stop-color="#F7DD43" stop-opacity="0"/>
</linearGradient>
<linearGradient id="paint31_linear_175_1868" x1="61.5" y1="265" x2="61.5" y2="576.381" gradientUnits="userSpaceOnUse">
<stop stop-color="#F7DD43"/>
<stop offset="1" stop-color="#F7DD43" stop-opacity="0"/>
</linearGradient>
<linearGradient id="paint32_linear_175_1868" x1="61.5" y1="265" x2="61.5" y2="576.381" gradientUnits="userSpaceOnUse">
<stop stop-color="#F7DD43"/>
<stop offset="1" stop-color="#F7DD43" stop-opacity="0"/>
</linearGradient>
<linearGradient id="paint33_linear_175_1868" x1="61.5" y1="265" x2="61.5" y2="576.381" gradientUnits="userSpaceOnUse">
<stop stop-color="#F7DD43"/>
<stop offset="1" stop-color="#F7DD43" stop-opacity="0"/>
</linearGradient>
<linearGradient id="paint34_linear_175_1868" x1="61.5" y1="265" x2="61.5" y2="576.381" gradientUnits="userSpaceOnUse">
<stop stop-color="#F7DD43"/>
<stop offset="1" stop-color="#F7DD43" stop-opacity="0"/>
</linearGradient>
<linearGradient id="paint35_linear_175_1868" x1="61.5" y1="265" x2="61.5" y2="576.381" gradientUnits="userSpaceOnUse">
<stop stop-color="#F7DD43"/>
<stop offset="1" stop-color="#F7DD43" stop-opacity="0"/>
</linearGradient>
<linearGradient id="paint36_linear_175_1868" x1="61.5" y1="265" x2="61.5" y2="576.381" gradientUnits="userSpaceOnUse">
<stop stop-color="#F7DD43"/>
<stop offset="1" stop-color="#F7DD43" stop-opacity="0"/>
</linearGradient>
<linearGradient id="paint37_linear_175_1868" x1="61.5" y1="265" x2="61.5" y2="576.381" gradientUnits="userSpaceOnUse">
<stop stop-color="#F7DD43"/>
<stop offset="1" stop-color="#F7DD43" stop-opacity="0"/>
</linearGradient>
<linearGradient id="paint38_linear_175_1868" x1="61.5" y1="265" x2="61.5" y2="576.381" gradientUnits="userSpaceOnUse">
<stop stop-color="#F7DD43"/>
<stop offset="1" stop-color="#F7DD43" stop-opacity="0"/>
</linearGradient>
<linearGradient id="paint39_linear_175_1868" x1="61.5" y1="265" x2="61.5" y2="576.381" gradientUnits="userSpaceOnUse">
<stop stop-color="#F7DD43"/>
<stop offset="1" stop-color="#F7DD43" stop-opacity="0"/>
</linearGradient>
<linearGradient id="paint40_linear_175_1868" x1="61.5" y1="265" x2="61.5" y2="576.381" gradientUnits="userSpaceOnUse">
<stop stop-color="#F7DD43"/>
<stop offset="1" stop-color="#F7DD43" stop-opacity="0"/>
</linearGradient>
<linearGradient id="paint41_linear_175_1868" x1="61.5" y1="265" x2="61.5" y2="576.381" gradientUnits="userSpaceOnUse">
<stop stop-color="#F7DD43"/>
<stop offset="1" stop-color="#F7DD43" stop-opacity="0"/>
</linearGradient>
<linearGradient id="paint42_linear_175_1868" x1="61.5" y1="265" x2="61.5" y2="576.381" gradientUnits="userSpaceOnUse">
<stop stop-color="#F7DD43"/>
<stop offset="1" stop-color="#F7DD43" stop-opacity="0"/>
</linearGradient>
<linearGradient id="paint43_linear_175_1868" x1="61.5" y1="265" x2="61.5" y2="576.381" gradientUnits="userSpaceOnUse">
<stop stop-color="#F7DD43"/>
<stop offset="1" stop-color="#F7DD43" stop-opacity="0"/>
</linearGradient>
<linearGradient id="paint44_linear_175_1868" x1="61.5" y1="265" x2="61.5" y2="576.381" gradientUnits="userSpaceOnUse">
<stop stop-color="#F7DD43"/>
<stop offset="1" stop-color="#F7DD43" stop-opacity="0"/>
</linearGradient>
<linearGradient id="paint45_linear_175_1868" x1="61.5" y1="265" x2="61.5" y2="576.381" gradientUnits="userSpaceOnUse">
<stop stop-color="#F7DD43"/>
<stop offset="1" stop-color="#F7DD43" stop-opacity="0"/>
</linearGradient>
<linearGradient id="paint46_linear_175_1868" x1="61.5" y1="265" x2="61.5" y2="576.381" gradientUnits="userSpaceOnUse">
<stop stop-color="#F7DD43"/>
<stop offset="1" stop-color="#F7DD43" stop-opacity="0"/>
</linearGradient>
<linearGradient id="paint47_linear_175_1868" x1="947.5" y1="-35" x2="947.5" y2="263.818" gradientUnits="userSpaceOnUse">
<stop stop-color="#F7DD43"/>
<stop offset="1" stop-color="#F7DD43" stop-opacity="0"/>
</linearGradient>
<linearGradient id="paint48_linear_175_1868" x1="947.5" y1="-35" x2="947.5" y2="263.818" gradientUnits="userSpaceOnUse">
<stop stop-color="#F7DD43"/>
<stop offset="1" stop-color="#F7DD43" stop-opacity="0"/>
</linearGradient>
<linearGradient id="paint49_linear_175_1868" x1="947.5" y1="-35" x2="947.5" y2="263.818" gradientUnits="userSpaceOnUse">
<stop stop-color="#F7DD43"/>
<stop offset="1" stop-color="#F7DD43" stop-opacity="0"/>
</linearGradient>
<linearGradient id="paint50_linear_175_1868" x1="947.5" y1="-35" x2="947.5" y2="263.818" gradientUnits="userSpaceOnUse">
<stop stop-color="#F7DD43"/>
<stop offset="1" stop-color="#F7DD43" stop-opacity="0"/>
</linearGradient>
<linearGradient id="paint51_linear_175_1868" x1="947.5" y1="-35" x2="947.5" y2="263.818" gradientUnits="userSpaceOnUse">
<stop stop-color="#F7DD43"/>
<stop offset="1" stop-color="#F7DD43" stop-opacity="0"/>
</linearGradient>
<linearGradient id="paint52_linear_175_1868" x1="947.5" y1="-35" x2="947.5" y2="263.818" gradientUnits="userSpaceOnUse">
<stop stop-color="#F7DD43"/>
<stop offset="1" stop-color="#F7DD43" stop-opacity="0"/>
</linearGradient>
<linearGradient id="paint53_linear_175_1868" x1="947.5" y1="-35" x2="947.5" y2="263.818" gradientUnits="userSpaceOnUse">
<stop stop-color="#F7DD43"/>
<stop offset="1" stop-color="#F7DD43" stop-opacity="0"/>
</linearGradient>
<linearGradient id="paint54_linear_175_1868" x1="947.5" y1="-35" x2="947.5" y2="263.818" gradientUnits="userSpaceOnUse">
<stop stop-color="#F7DD43"/>
<stop offset="1" stop-color="#F7DD43" stop-opacity="0"/>
</linearGradient>
<linearGradient id="paint55_linear_175_1868" x1="947.5" y1="-35" x2="947.5" y2="263.818" gradientUnits="userSpaceOnUse">
<stop stop-color="#F7DD43"/>
<stop offset="1" stop-color="#F7DD43" stop-opacity="0"/>
</linearGradient>
<linearGradient id="paint56_linear_175_1868" x1="947.5" y1="-35" x2="947.5" y2="263.818" gradientUnits="userSpaceOnUse">
<stop stop-color="#F7DD43"/>
<stop offset="1" stop-color="#F7DD43" stop-opacity="0"/>
</linearGradient>
<linearGradient id="paint57_linear_175_1868" x1="947.5" y1="-35" x2="947.5" y2="263.818" gradientUnits="userSpaceOnUse">
<stop stop-color="#F7DD43"/>
<stop offset="1" stop-color="#F7DD43" stop-opacity="0"/>
</linearGradient>
<linearGradient id="paint58_linear_175_1868" x1="947.5" y1="-35" x2="947.5" y2="263.818" gradientUnits="userSpaceOnUse">
<stop stop-color="#F7DD43"/>
<stop offset="1" stop-color="#F7DD43" stop-opacity="0"/>
</linearGradient>
<linearGradient id="paint59_linear_175_1868" x1="947.5" y1="-35" x2="947.5" y2="263.818" gradientUnits="userSpaceOnUse">
<stop stop-color="#F7DD43"/>
<stop offset="1" stop-color="#F7DD43" stop-opacity="0"/>
</linearGradient>
<linearGradient id="paint60_linear_175_1868" x1="947.5" y1="-35" x2="947.5" y2="263.818" gradientUnits="userSpaceOnUse">
<stop stop-color="#F7DD43"/>
<stop offset="1" stop-color="#F7DD43" stop-opacity="0"/>
</linearGradient>
<linearGradient id="paint61_linear_175_1868" x1="947.5" y1="-35" x2="947.5" y2="263.818" gradientUnits="userSpaceOnUse">
<stop stop-color="#F7DD43"/>
<stop offset="1" stop-color="#F7DD43" stop-opacity="0"/>
</linearGradient>
<linearGradient id="paint62_linear_175_1868" x1="947.5" y1="-35" x2="947.5" y2="263.818" gradientUnits="userSpaceOnUse">
<stop stop-color="#F7DD43"/>
<stop offset="1" stop-color="#F7DD43" stop-opacity="0"/>
</linearGradient>
<linearGradient id="paint63_linear_175_1868" x1="947.5" y1="-35" x2="947.5" y2="263.818" gradientUnits="userSpaceOnUse">
<stop stop-color="#F7DD43"/>
<stop offset="1" stop-color="#F7DD43" stop-opacity="0"/>
</linearGradient>
<linearGradient id="paint64_linear_175_1868" x1="947.5" y1="-35" x2="947.5" y2="263.818" gradientUnits="userSpaceOnUse">
<stop stop-color="#F7DD43"/>
<stop offset="1" stop-color="#F7DD43" stop-opacity="0"/>
</linearGradient>
<linearGradient id="paint65_linear_175_1868" x1="947.5" y1="-35" x2="947.5" y2="263.818" gradientUnits="userSpaceOnUse">
<stop stop-color="#F7DD43"/>
<stop offset="1" stop-color="#F7DD43" stop-opacity="0"/>
</linearGradient>
<linearGradient id="paint66_linear_175_1868" x1="947.5" y1="-35" x2="947.5" y2="263.818" gradientUnits="userSpaceOnUse">
<stop stop-color="#F7DD43"/>
<stop offset="1" stop-color="#F7DD43" stop-opacity="0"/>
</linearGradient>
<linearGradient id="paint67_linear_175_1868" x1="947.5" y1="-35" x2="947.5" y2="263.818" gradientUnits="userSpaceOnUse">
<stop stop-color="#F7DD43"/>
<stop offset="1" stop-color="#F7DD43" stop-opacity="0"/>
</linearGradient>
<linearGradient id="paint68_linear_175_1868" x1="947.5" y1="-35" x2="947.5" y2="263.818" gradientUnits="userSpaceOnUse">
<stop stop-color="#F7DD43"/>
<stop offset="1" stop-color="#F7DD43" stop-opacity="0"/>
</linearGradient>
<linearGradient id="paint69_linear_175_1868" x1="947.5" y1="-35" x2="947.5" y2="263.818" gradientUnits="userSpaceOnUse">
<stop stop-color="#F7DD43"/>
<stop offset="1" stop-color="#F7DD43" stop-opacity="0"/>
</linearGradient>
<linearGradient id="paint70_linear_175_1868" x1="947.5" y1="-35" x2="947.5" y2="263.818" gradientUnits="userSpaceOnUse">
<stop stop-color="#F7DD43"/>
<stop offset="1" stop-color="#F7DD43" stop-opacity="0"/>
</linearGradient>
<linearGradient id="paint71_linear_175_1868" x1="947.5" y1="-35" x2="947.5" y2="263.818" gradientUnits="userSpaceOnUse">
<stop stop-color="#F7DD43"/>
<stop offset="1" stop-color="#F7DD43" stop-opacity="0"/>
</linearGradient>
<linearGradient id="paint72_linear_175_1868" x1="947.5" y1="-35" x2="947.5" y2="263.818" gradientUnits="userSpaceOnUse">
<stop stop-color="#F7DD43"/>
<stop offset="1" stop-color="#F7DD43" stop-opacity="0"/>
</linearGradient>
<linearGradient id="paint73_linear_175_1868" x1="947.5" y1="-35" x2="947.5" y2="263.818" gradientUnits="userSpaceOnUse">
<stop stop-color="#F7DD43"/>
<stop offset="1" stop-color="#F7DD43" stop-opacity="0"/>
</linearGradient>
<linearGradient id="paint74_linear_175_1868" x1="947.5" y1="-35" x2="947.5" y2="263.818" gradientUnits="userSpaceOnUse">
<stop stop-color="#F7DD43"/>
<stop offset="1" stop-color="#F7DD43" stop-opacity="0"/>
</linearGradient>
<linearGradient id="paint75_linear_175_1868" x1="947.5" y1="-35" x2="947.5" y2="263.818" gradientUnits="userSpaceOnUse">
<stop stop-color="#F7DD43"/>
<stop offset="1" stop-color="#F7DD43" stop-opacity="0"/>
</linearGradient>
<linearGradient id="paint76_linear_175_1868" x1="947.5" y1="-35" x2="947.5" y2="263.818" gradientUnits="userSpaceOnUse">
<stop stop-color="#F7DD43"/>
<stop offset="1" stop-color="#F7DD43" stop-opacity="0"/>
</linearGradient>
<linearGradient id="paint77_linear_175_1868" x1="947.5" y1="-35" x2="947.5" y2="263.818" gradientUnits="userSpaceOnUse">
<stop stop-color="#F7DD43"/>
<stop offset="1" stop-color="#F7DD43" stop-opacity="0"/>
</linearGradient>
<linearGradient id="paint78_linear_175_1868" x1="947.5" y1="-35" x2="947.5" y2="263.818" gradientUnits="userSpaceOnUse">
<stop stop-color="#F7DD43"/>
<stop offset="1" stop-color="#F7DD43" stop-opacity="0"/>
</linearGradient>
<linearGradient id="paint79_linear_175_1868" x1="947.5" y1="-35" x2="947.5" y2="263.818" gradientUnits="userSpaceOnUse">
<stop stop-color="#F7DD43"/>
<stop offset="1" stop-color="#F7DD43" stop-opacity="0"/>
</linearGradient>
<linearGradient id="paint80_linear_175_1868" x1="947.5" y1="-35" x2="947.5" y2="263.818" gradientUnits="userSpaceOnUse">
<stop stop-color="#F7DD43"/>
<stop offset="1" stop-color="#F7DD43" stop-opacity="0"/>
</linearGradient>
<linearGradient id="paint81_linear_175_1868" x1="947.5" y1="-35" x2="947.5" y2="263.818" gradientUnits="userSpaceOnUse">
<stop stop-color="#F7DD43"/>
<stop offset="1" stop-color="#F7DD43" stop-opacity="0"/>
</linearGradient>
<linearGradient id="paint82_linear_175_1868" x1="947.5" y1="-35" x2="947.5" y2="263.818" gradientUnits="userSpaceOnUse">
<stop stop-color="#F7DD43"/>
<stop offset="1" stop-color="#F7DD43" stop-opacity="0"/>
</linearGradient>
<linearGradient id="paint83_linear_175_1868" x1="947.5" y1="-35" x2="947.5" y2="263.818" gradientUnits="userSpaceOnUse">
<stop stop-color="#F7DD43"/>
<stop offset="1" stop-color="#F7DD43" stop-opacity="0"/>
</linearGradient>
<linearGradient id="paint84_linear_175_1868" x1="947.5" y1="-35" x2="947.5" y2="263.818" gradientUnits="userSpaceOnUse">
<stop stop-color="#F7DD43"/>
<stop offset="1" stop-color="#F7DD43" stop-opacity="0"/>
</linearGradient>
<linearGradient id="paint85_linear_175_1868" x1="947.5" y1="-35" x2="947.5" y2="263.818" gradientUnits="userSpaceOnUse">
<stop stop-color="#F7DD43"/>
<stop offset="1" stop-color="#F7DD43" stop-opacity="0"/>
</linearGradient>
<linearGradient id="paint86_linear_175_1868" x1="947.5" y1="-35" x2="947.5" y2="263.818" gradientUnits="userSpaceOnUse">
<stop stop-color="#F7DD43"/>
<stop offset="1" stop-color="#F7DD43" stop-opacity="0"/>
</linearGradient>
<linearGradient id="paint87_linear_175_1868" x1="947.5" y1="-35" x2="947.5" y2="263.818" gradientUnits="userSpaceOnUse">
<stop stop-color="#F7DD43"/>
<stop offset="1" stop-color="#F7DD43" stop-opacity="0"/>
</linearGradient>
<linearGradient id="paint88_linear_175_1868" x1="947.5" y1="-35" x2="947.5" y2="263.818" gradientUnits="userSpaceOnUse">
<stop stop-color="#F7DD43"/>
<stop offset="1" stop-color="#F7DD43" stop-opacity="0"/>
</linearGradient>
<linearGradient id="paint89_linear_175_1868" x1="947.5" y1="-35" x2="947.5" y2="263.818" gradientUnits="userSpaceOnUse">
<stop stop-color="#F7DD43"/>
<stop offset="1" stop-color="#F7DD43" stop-opacity="0"/>
</linearGradient>
<linearGradient id="paint90_linear_175_1868" x1="947.5" y1="-35" x2="947.5" y2="263.818" gradientUnits="userSpaceOnUse">
<stop stop-color="#F7DD43"/>
<stop offset="1" stop-color="#F7DD43" stop-opacity="0"/>
</linearGradient>
<linearGradient id="paint91_linear_175_1868" x1="947.5" y1="-35" x2="947.5" y2="263.818" gradientUnits="userSpaceOnUse">
<stop stop-color="#F7DD43"/>
<stop offset="1" stop-color="#F7DD43" stop-opacity="0"/>
</linearGradient>
<linearGradient id="paint92_linear_175_1868" x1="947.5" y1="-35" x2="947.5" y2="263.818" gradientUnits="userSpaceOnUse">
<stop stop-color="#F7DD43"/>
<stop offset="1" stop-color="#F7DD43" stop-opacity="0"/>
</linearGradient>
<linearGradient id="paint93_linear_175_1868" x1="947.5" y1="-35" x2="947.5" y2="263.818" gradientUnits="userSpaceOnUse">
<stop stop-color="#F7DD43"/>
<stop offset="1" stop-color="#F7DD43" stop-opacity="0"/>
</linearGradient>
</defs>
</svg>
